<svg xmlns="http://www.w3.org/2000/svg" version="1.1" width="600px" height="600px" viewBox="0 0 200 200" style="overflow:hidden!important;"><defs id="SvgjsDefs4796"></defs><g id="svga-group-wrapper"><g id="svga-group-backs-single"><path id="SvgjsPath9539" d="M0 151.2s23.5-5.1 41.7 13.1S59.6 192.1 87 200H0v-48.8z" fill="#ff0000" stroke-width="none" opacity="1"></path><path id="SvgjsPath9540" d="M133.6 180.5c-23.4-5.2-55.2-7.3-78.3-46.1S0 100 0 100v51.2s23.5-5.1 41.7 13.1S59.6 192.1 87 200h80.9s-10.9-14.4-34.3-19.5z" fill="#ff6700" stroke-width="none" opacity="1"></path><path id="SvgjsPath9541" d="M170.8 156c-37.1 6.4-73.1-10.7-84.6-38.1-17-40.6-35.4-62.5-53.5-65-17.9-2.5-32.8 0-32.8 0V100s32.3-4.5 55.3 34.4 54.9 41 78.3 46.1 34.3 19.5 34.3 19.5H200v-50.1s-13.7 3.4-29.2 6.1z" fill="#ffb600" stroke-width="none" opacity="1"></path><path id="SvgjsPath9542" d="M149.1 124.2c-28.7-13.4-33-30-37.2-43.8-4.2-13.7-16.3-50-45.7-65.3S0 8 0 8v45s14.9-2.5 32.8 0c18.1 2.5 36.4 24.5 53.5 65 11.5 27.4 47.5 44.5 84.6 38.1 15.5-2.7 29.2-6.1 29.2-6.1v-14.3c-.1-.1-22.3 1.9-51-11.5z" fill="#378c00" stroke-width="none" opacity="1"></path><path id="SvgjsPath9543" d="M170.3 103c-17.6-9.8-25.8-29.7-34.3-63.3C127.5 6 100 0 100 0H0v8s36.8-8.2 66.1 7.2 41.5 51.6 45.7 65.3 8.5 30.4 37.2 43.8c28.7 13.4 50.9 11.4 50.9 11.4v-21.2c.1-.1-12-1.7-29.6-11.5z" fill="#00b1ba" stroke-width="none" opacity="1"></path><path id="SvgjsPath9544" d="M166.1 37.8C152.1 27.3 149.9 0 149.9 0H100s27.5 6 36 39.6 16.6 53.5 34.3 63.3 29.7 11.4 29.7 11.4V61.1s-19.8-12.9-33.9-23.3z" fill="#0530e2" stroke-width="none" opacity="1"></path><path id="SvgjsPath9545" d="M149.9 0s2.1 27.3 16.2 37.8S200 61.1 200 61.1V0h-50.1z" fill="#8900ea" stroke-width="none" opacity="1"></path><path id="SvgjsPath9546" d="M74.2 196.2c-2.6-1.1-5-2.4-7.4-3.9l-1.7-1.2c-.6-.4-1.1-.9-1.7-1.3-.5-.4-1.1-.9-1.7-1.3-.5-.5-1-.9-1.6-1.4-.5-.5-1.1-.9-1.6-1.4l-1.5-1.5c-1-1-2-2.1-3-3.1-3.9-4.4-7.2-9.2-10.5-14.1-1.7-2.4-3.2-5-5.1-7.4-.5-.6-.9-1.2-1.4-1.8-.5-.6-1-1.2-1.6-1.8l-.8-.8-.9-.8c-.6-.5-1.3-1-1.9-1.4-2.7-1.7-5.7-2.9-8.7-3.6s-6.1-1-9.2-1c-3.1 0-6.1.3-9 .9-1.7.3-3.3.7-5 1.2v1.6c4.7-.2 9.3-.2 13.8.2 2.8.3 5.6.7 8.3 1.4 2.7.7 5.2 1.7 7.7 2.9 1.2.6 2.4 1.3 3.5 2.1.6.4 1.1.8 1.6 1.3.5.4 1 1 1.6 1.5 2.1 2 4 4.2 5.8 6.5 3.5 4.7 6.4 9.8 9.7 14.8 1.7 2.5 3.4 5 5.4 7.3.5.6 1 1.1 1.5 1.7s1.1 1.1 1.7 1.6c.6.5 1.1 1.1 1.7 1.5l1.8 1.4c1.9 1.5 3.9 2.7 6 3.9h14.6c-.9-.3-1.7-.6-2.6-.9-2.6-1.1-5.2-2-7.8-3.1zm82.6-11.6c-.5-.3-1.1-.6-1.6-.9l-1.6-.8c-1.1-.5-2.2-1.1-3.3-1.6l-3.4-1.4c-1.1-.5-2.3-.9-3.4-1.3-4.6-1.7-9.3-3-14-4-2.4-.6-4.8-.9-7.1-1.3-2.4-.3-4.8-.7-7.2-.9-2.4-.3-4.8-.5-7.2-.7-1.2-.1-2.3-.2-3.4-.3-1.1-.2-2.2-.3-3.3-.6-8.8-1.9-17.1-6.4-24.4-12.2-7.3-5.8-13.6-13.1-19-20.9-2.7-3.9-5.1-8-7.4-12.1-1.2-2.1-2.3-4.2-3.4-6.2l-1.7-3.1c-.6-1.1-1.2-2.2-1.9-3.2-2.8-4.1-6.3-7.9-10.4-10.7-2-1.5-4.2-2.7-6.4-3.8-2.2-1.1-4.6-1.9-6.9-2.7-2.4-.8-4.8-1.2-7.2-1.6-2.4-.4-4.8-.6-7.3-.7-1.8 0-3.5 0-5.3.1v2c6.4.5 12.6 1.7 18.5 3.8 2.1.8 4.2 1.7 6.2 2.8 2 1.1 4 2.2 5.8 3.6.9.6 1.8 1.4 2.6 2.1.8.8 1.7 1.5 2.5 2.3l1.2 1.2 1.1 1.3c.8.8 1.4 1.7 2.2 2.6.7.9 1.3 1.8 2 2.8.7 1 1.3 2 2 3 1.4 2 2.7 3.9 4.1 5.9 2.8 3.9 5.6 7.8 8.5 11.6 5.7 7.7 11.5 15.2 18.5 22 3.5 3.4 7.3 6.5 11.5 9s8.8 4.5 13.7 5.7c1.2.3 2.4.5 3.7.8 1.2.2 2.5.4 3.7.5 2.3.3 4.7.6 7 .9 2.3.3 4.6.7 7 1.1 2.3.4 4.6.8 6.9 1.3 9.2 1.8 18.1 4.4 26.5 8.3 4.2 1.9 8.2 4.3 12.1 6.9l2.9 2c.9.7 1.8 1.5 2.8 2.2l.9.7h1.9c-5.5-6.2-11.9-11.5-19-15.5zm-6.8-28.8c-5.6-.1-11.3-.7-16.8-1.7-5.5-1.1-10.8-2.7-15.9-5.1-10-4.9-18.3-12.8-24.3-22.6-1.5-2.4-3-4.9-4.3-7.4-1.4-2.5-2.7-5.1-4-7.7-2.5-5.2-4.9-10.5-7.3-15.8-1.2-2.6-2.4-5.3-3.7-7.9-1.2-2.6-2.5-5.2-3.9-7.8-2.8-5.2-6-10.2-9.9-14.7-4-4.5-8.7-8.4-14.1-11.2-5.3-2.9-11.1-4.8-17-5.8-.7-.1-1.5-.3-2.2-.4l-2.2-.2-2.2-.2h-4.4l-2.2.1c-1.5 0-3 .2-4.4.4-.7.1-1.5.2-2.2.3l-2.2.4c-1.4.3-2.9.6-4.3 1.1-.8.2-1.7.5-2.5.8v1.5c9.4-1.9 19-1.9 28.2.2 1.4.3 2.7.6 4 1.1l2 .6 1 .3 1 .4c1.3.5 2.6 1 3.9 1.6l3.7 1.9c.6.3 1.2.7 1.8 1 .6.4 1.2.7 1.8 1.1l1.6.9 1.7 1.2c2.2 1.7 4.3 3.6 6.2 5.6 7.9 8 14 17.9 19.1 28.3 2.5 5.2 4.9 10.5 7.2 15.8 2.4 5.3 4.7 10.6 7.5 15.8 2.7 5.2 6 10.3 10.2 14.6 4.1 4.4 9 8 14.4 10.8 10.7 5.6 22.9 7.9 34.7 8 11.9 0 23.6-1.8 34.9-5 5.1-1.5 10.2-3.2 15.1-5.2v-2.8c-5.3 1.6-10.7 3.1-16.1 4.2-11.2 2.3-22.6 3.6-33.9 3.5zm41.1-20.2-2.1-.1-2.1-.1c-.7 0-1.4-.1-2.1-.2-2.9-.2-5.6-.7-8.5-1.1-2.8-.6-5.6-1.1-8.3-2-2.8-.7-5.4-1.7-8.1-2.6-1.3-.5-2.6-1.1-3.9-1.7-1.3-.6-2.6-1-3.9-1.7-2.5-1.3-5.1-2.5-7.5-3.9-1.2-.7-2.4-1.5-3.6-2.2-1.1-.8-2.4-1.6-3.5-2.4-2.3-1.7-4.4-3.5-6.5-5.5-4.1-4-7.6-8.5-10.6-13.5-2.9-5-5.2-10.3-7.2-15.7-2-5.4-3.5-11-5.2-16.6-.8-2.8-1.7-5.6-2.6-8.4-.9-2.8-1.9-5.6-3-8.3-1.1-2.7-2.4-5.5-3.8-8.1-1.4-2.6-2.9-5.2-4.5-7.7-1.7-2.5-3.4-4.9-5.3-7.2s-4-4.5-6.2-6.6c-4.4-4.1-9.6-7.5-15.1-10.1C61.8 7.3 56 5.5 50 4.6c-5.9-.9-11.9-1.1-17.8-.8-3 .1-5.9.4-8.8.8-1.5.2-2.9.4-4.4.7l-4.3.8c-2.9.7-5.7 1.3-8.6 2.1-2 .6-4.1 1.2-6.1 1.9v.8C10.7 9 21.5 7.6 32.3 7.8c5.7 0 11.4.5 16.9 1.6 5.5 1.1 10.9 2.8 15.9 5.2 2.5 1.2 4.9 2.5 7.2 4.1 2.3 1.6 4.5 3.2 6.6 5.1 4.2 3.7 7.9 8 11.2 12.6 3.2 4.7 6.2 9.6 8.6 14.7 2.4 5.2 4.6 10.5 6.6 16 2 5.4 4.1 10.9 6.2 16.3 1.1 2.7 2.2 5.4 3.4 8.1.6 1.3 1.3 2.6 1.9 4 .7 1.3 1.3 2.6 2.1 3.9 1.4 2.6 2.9 5.1 4.6 7.5 1.6 2.5 3.5 4.8 5.4 7.1 3.9 4.5 8.4 8.6 13.4 11.8 2.5 1.7 5.1 3 7.8 4.4 1.3.7 2.7 1.2 4.1 1.9 1.4.6 2.7 1.2 4.1 1.7 5.6 2 11.4 3.5 17.3 4.3 3 .3 5.9.6 8.9.7.7 0 1.5.1 2.2.1l2.2-.1 2.2-.1 2.2-.2c2.2-.2 4.5-.5 6.7-.9v-2c-2.3.2-4.5.2-6.8.2l-2.1-.2zM118.9 6.8c1.3 1.3 2.5 2.7 3.6 4.1 2.2 2.9 4.4 5.9 6.3 9 1.9 3.1 3.6 6.4 5 9.8l1 2.6c.3.9.5 1.8.8 2.7.3.9.4 1.8.6 2.7.2.9.4 1.8.6 2.8 1.3 7.5 2.5 15 4.1 22.5.9 3.7 1.7 7.5 3 11.2.3.9.6 1.8 1 2.8l1.1 2.7.6 1.3.7 1.3c.4.9.9 1.8 1.3 2.6 1.9 3.5 4.2 6.8 6.9 9.7 2.7 3 5.8 5.6 9.3 7.7 3.5 2.1 7.4 3.5 11.2 4.4 3.9.9 7.7 1.4 11.6 1.6l2.9.1h2.9c1.9 0 3.8-.1 5.8-.2.3 0 .6-.1.9-.1v-2.4c-4.1-.3-8.1-.8-12.1-1.4-.9-.1-1.8-.3-2.7-.5l-1.4-.2-1.4-.3c-1.8-.3-3.6-.8-5.3-1.3-3.5-1.1-6.7-2.4-9.7-4.3-6.1-3.7-11-9-14.9-15.2-.5-.8-.9-1.6-1.4-2.4l-.7-1.2-.6-1.2-1.2-2.5-1.1-2.5c-.4-.8-.8-1.7-1.1-2.6l-1.1-2.6c-.7-1.7-1.3-3.5-1.9-5.3-2.4-7.1-4.1-14.5-5.1-22-.5-3.8-1-7.6-2-11.4-.9-3.8-2.2-7.5-4-11-1.8-3.5-3.9-6.8-6.5-9.8-1.3-1.5-2.6-2.9-4-4.3-1.4-1.3-2.8-2.6-4.3-3.8h-5.9c1.1.9 2.2 1.9 3.3 2.9 1.4 1.3 2.7 2.6 3.9 4zm32.4-1.4c.2 2.4.4 4.9 1 7.3.2 1.2.6 2.4.8 3.6.4 1.2.7 2.4 1.1 3.5.7 2.3 1.7 4.6 2.8 6.8 1.2 2.2 2.5 4.3 4 6.2.7 1 1.5 1.9 2.3 2.9.4.5.8.9 1.2 1.4s.8.9 1.2 1.4c.9.8 1.7 1.7 2.5 2.6l1.2 1.3 1.2 1.3c.8.9 1.6 1.7 2.4 2.7.8.9 1.7 1.7 2.5 2.6.8.9 1.7 1.7 2.6 2.5.9.8 1.8 1.7 2.8 2.3l3 2.1c1.1.6 2.1 1.2 3.2 1.8 1.1.5 2.2 1 3.4 1.5 1.1.4 2.3.8 3.5 1.2 1.2.3 2.4.7 3.6.9.8.2 1.6.3 2.4.4v-3.1c-1.6-.6-3.1-1.2-4.6-1.9l-3.1-1.5-3.1-1.5c-1-.6-2-1.1-3-1.7-1-.6-2-1.2-3-1.7s-2-1.2-3-1.7-2-1.1-3-1.8c-1-.6-1.9-1.3-2.9-2-.9-.7-1.8-1.5-2.7-2.3-.4-.4-.9-.8-1.3-1.2l-1.2-1.3c-.8-.9-1.6-1.8-2.3-2.7-1.4-1.8-2.6-3.8-3.6-5.9-2-4.2-3.4-8.5-4.6-12.9-1.1-4.4-1.6-9-2.1-13.5-.2-1.7-.3-3.3-.4-5h-5c0 1.8 0 3.6.2 5.4z" fill="#ffffff" stroke-width="none" opacity="1"></path></g><g id="svga-group-humanwrap-move" transform="matrix(1,0,0,1,0,0)"><g id="svga-group-humanwrap" transform="matrix(1,0,0,1,0,0)"><g id="svga-group-hair-back-move" transform="matrix(1,0,0,1,0,0)"><g id="svga-group-hair-back" transform="matrix(1,0,0,1,0,0)"><path id="SvgjsPath9148" d="M156.2 138.1c3.7 10.9 9.7 17.5 2.9 25.5-6.9 8-7.1 9.2-15.4 13.2s-79.6 3.7-86.1-3.7S48 157.6 46 139s-1.1-38.6 1.1-44.4c2.3-5.7 4.9-24 17.7-28.3s63-6.6 72.1-.9 18.9 8.6 20.3 21.5 0 16.3.9 29.5-1.9 21.7-1.9 21.7z" fill="#452c22" stroke-width="none" opacity="1" stroke="none"></path><path id="SvgjsPath9149" d="M67.1 120.9c1.5 3.2 1.8 10.2-1.6 13.8-2.4 2.6-3.8 7.2 1.3 15.3 5.1 8.1 7.3 9 6.8 13.9s-5.4 16.1-.2 9.5c5.1-6.6 7.4-15.2 4-20.1s-4.9-9.3-4.7-15.6c.2-6.3.4-9.2.4-9.2l-6-7.6zm61.7 5.4c4.4 5.4 9.8 1.5 6.1 8.3-3.7 6.8-7.8 9.3-5.1 15.1 2.7 5.9 10.5 6.3 10.2 13.2-.2 6.8-7.3 16.4-7.3 16.4s6.3-12.4 2.7-16.1-14.9-9.5-10.6-20.6c2.1-5.3 7.2-10.9 5.9-12.6s-1.9-3.7-1.9-3.7z" fill="#543c32" stroke-width="none" opacity="1" stroke="none"></path></g></g><g id="svga-group-humanbody-back"><path id="SvgjsPath5100" d="m168.5 219.5-1.7-21.5s.7-9-8.8-15.3-23.4-10.1-29.5-14.2c-6.1-4.1-9.2-4.5-9-16.9s.9-40.3.9-40.3H79.6s.7 27.9.9 40.3c.2 12.4-2.9 12.8-9 16.9-6.1 4.1-20 7.9-29.5 14.2S33.2 198 33.2 198l-1.6 21.5h136.9z" fill="#ffd0bc" stroke-width="none" opacity="1" stroke="none"></path></g><g id="svga-group-chinshadow-single"><path id="SvgjsPath8065" d="M83.1 156.9c5 5.2 12.1 7.4 16.9 7.4s12-2.1 16.9-7.4c.86-.92 1.73-1.91 2.61-2.96-.02-.73-.02-1.5-.01-2.34.2-12.4.9-40.3.9-40.3H79.6s.7 27.9.9 40.3c.01.85.01 1.64-.01 2.38.88 1.04 1.76 2.01 2.61 2.92z" fill="#e09879" stroke-width="none" opacity="0.65" stroke="none"></path></g><g id="svga-group-humanbody-front"><path id="SvgjsPath5101" d="M73.8 175.9c5.1 2.9 11.8 5.2 17.6 5.7.4 0 .4-.6.1-.7-2.8-1.1-5.9-1.7-8.8-2.6-2.9-.9-5.8-2-8.8-2.7-.1-.1-.3.2-.1.3zm35.2 6.2c5.3-.6 11.3-3 15.9-5.8.3-.2.1-.6-.2-.5-2.6.9-5.2 2-7.8 2.9-2.6.9-5.4 1.5-8 2.5-.5.1-.5.9.1.9z" fill="#e09879" stroke-width="none" opacity="1" stroke="none"></path><path id="SvgjsPath5102" d="m168.4 219.4-2.1-21.4c0-2.2-.5-4.5-1.5-6.6-.9-2.1-2.3-3.9-3.9-5.5s-3.5-2.8-5.5-4c-2-1.2-4.1-2.2-6.2-3.1-4.2-1.9-8.6-3.6-12.9-5.4-2.2-.9-4.3-1.9-6.4-3-1.1-.6-2.1-1.2-3-1.9-1-.6-2-1.2-3-1.9s-2-1.5-2.8-2.6c-.8-1-1.3-2.2-1.7-3.4-.7-2.4-.8-4.8-.8-7.2 0-4.7.2-9.4.3-14.1.2-9.4.6-18.7.9-28l.6.6-20.4-.2-20.4-.1.3-.3.7 28c.1 4.7.3 9.3.4 14 0 2.4-.1 4.7-.8 7.1-.3 1.2-.9 2.3-1.6 3.3-.8 1-1.7 1.8-2.7 2.5s-2 1.3-2.9 2c-.9.6-1.9 1.3-3 1.9-2.1 1.2-4.2 2.1-6.4 3.1-4.3 1.9-8.6 3.6-12.8 5.6-2.1 1-4.2 2.1-6.1 3.2-2 1.2-3.8 2.4-5.4 4-1.6 1.6-2.9 3.4-3.8 5.4-.4 1-.8 2.1-1 3.1-.2 1.1-.4 2.2-.3 3.2v.2l-1.5 21.5-1-1.1 34 .1c11.3 0 22.7.1 34.1.2l34.2.3 34.4.5zm.2.2-34 .4-34.2.3c-11.4.1-22.9.2-34.4.2l-34.4.1h-1.1l.1-1.1 1.7-21.5v.1c-.1-5.1 2.2-9.8 5.7-13.3 1.7-1.7 3.8-3.1 5.8-4.3 2-1.2 4.2-2.2 6.3-3.2 4.3-2 8.7-3.7 13-5.4 2.1-.9 4.3-1.8 6.3-2.9 1-.5 1.9-1.1 3-1.8 1-.6 2-1.2 2.9-1.9.9-.6 1.8-1.4 2.4-2.2.7-.9 1.2-1.9 1.5-2.9.6-2.1.8-4.5.8-6.8 0-4.6-.1-9.3-.2-14l-.6-28v-.3h.3l20.4-.1 20.4-.2h.6v.6c-.1 9.3-.2 18.7-.4 28-.1 4.7-.2 9.4-.2 14 .1 2.3.2 4.6.8 6.7.3 1.1.8 2 1.4 2.9.6.8 1.4 1.6 2.4 2.2.9.6 1.9 1.3 2.9 1.9 1 .7 1.9 1.3 2.9 1.8 2 1.1 4.1 2.1 6.3 3 4.3 1.8 8.6 3.6 12.9 5.6 2.1 1 4.2 2.1 6.2 3.3 2 1.2 4 2.6 5.7 4.3 3.4 3.4 5.6 8.1 5.4 13v-.1l1.4 21.6zm-112.8-.4 1.9-13.8.1 13.8h-2zm88.6 0-1.9-13.8-.1 13.8h2z" fill="#d17f5b" stroke-width="none" opacity="1" stroke="none"></path></g><g id="svga-group-clothes-single"><path id="SvgjsPath9434" d="M163.5 187.5s-9.4 9.9-64.1 11.4c-52.2 1.4-63.4-12-63.4-12s-5.7 7.5-7.8 10.1-3.4 4.1-3.4 4.1 1.2 3.1 3.2 3.4 2-1.1 3.8-.3 3.8 3.1 3.4 4.1c-.5 1.1.2 2.8 1.8 3.5 1.7.8 5.7 2.9 6.3 1.8s3.1-1.2 2.8.1c-.3 1.4 2.3 2.9 3.4 3.2 1.1.3 3.3-2.1 4.4-2.7.7-.4 2.2-.2 3.4.2v5.4h86.1l-.1-3.1c4-.4 9.4-.8 10.7-1.6 1.8-1.1 2.8-4.6 4.5-3.4s4.9 1.2 6.7.3.3-2.6.6-4c0 0-.4-1.8 2.3-2.1s5.9-4.2 5.9-4.2l-10.5-14.2z" fill="#4b2824" stroke-width="none" opacity="1"></path><path id="SvgjsPath9435" d="M174.6 201.5 164.2 187l-.1-.1c-.3-.4-.9-.4-1.3-.1l-.1.1c-.1.1-.4.4-.7.5-.2.2-.5.4-.8.5-.6.3-1.1.6-1.7.9-1.2.6-2.4 1.1-3.7 1.5-1.2.5-2.6.8-3.9 1.2-1.3.4-2.6.7-3.9 1-5.3 1.3-10.7 2.1-16.1 2.9-10.8 1.4-21.7 2-32.7 2.4-10.9.4-21.9.2-32.7-1.1-5.4-.6-10.8-1.6-16-3.1-2.6-.7-5.2-1.6-7.7-2.7-1.2-.6-2.5-1.1-3.6-1.9-.6-.4-1.2-.7-1.7-1.1-.3-.2-.5-.4-.8-.6-.1-.1-.3-.2-.4-.3l-.2-.2-.1-.1s0-.1-.2-.1c-.2.1-.2.2-.2.3l-.2.2-.3.4-.7.9-1.4 1.8-2.8 3.5c-1.9 2.4-3.9 4.6-5.8 7-.1.1-.1.3-.1.5.4.9.8 1.6 1.4 2.4.3.4.7.7 1.1 1 .4.3 1 .4 1.5.4s1.1-.1 1.5-.2c.5-.2.7-.3 1-.3.6 0 1.4.5 2 1 .6.5 1.2 1.1 1.5 1.8.2.3.3.7.2.8v.1l-.1.2c0 .1-.1.3-.1.4v.9c.2 1.1.9 2 1.7 2.6.2.1.5.3.7.4l.6.3 1.2.6c.8.4 1.6.7 2.5 1 .5.1.9.3 1.5.3.3 0 .7 0 1.1-.3.2-.1.4-.5.4-.4 0 0 0-.1.1-.1.2-.1.5-.3.8-.3h.4c-.1.4 0 .8.1 1.1.2.6.6 1 1 1.4.7.7 1.5 1.2 2.4 1.6.1.1.2.1.4.1H49.8c.4 0 .7-.1.9-.2.5-.2.9-.5 1.2-.8.7-.6 1.4-1.1 2-1.6.2-.1.3-.2.3-.2.1 0 .3-.1.4-.1.3 0 .7 0 1.1.1.3.1.7.1 1.1.3-.1 1.5-.1 3-.2 4.6 0 .3.2.5.5.5l10.8.2 10.8.1c7.2.1 14.3.1 21.5-.1 7.2-.1 14.3-.4 21.5-.4 7.2 0 14.4.1 21.5.2.3 0 .5-.2.5-.5v-2.7c2.3-.2 4.6-.4 6.9-.7.9-.1 1.7-.2 2.6-.5.4-.1 1-.4 1.3-.7.4-.3.7-.7 1-1 .6-.7 1.1-1.5 1.6-1.9.3-.2.5-.3.6-.2.1 0 .1.1.2.1l.3.2c.2.1.4.2.6.4 1.8.8 3.7.8 5.6.3.5-.2.9-.3 1.4-.7.5-.4.8-1.1.8-1.7 0-.6-.1-1-.2-1.4-.1-.4-.1-.8-.1-1V208c0-.1.1-.2.2-.3.2-.2.5-.4.8-.4.2-.1.4-.1.6-.1.2 0 .5-.1.8-.1.5-.2 1-.4 1.4-.6.9-.5 1.6-1.1 2.3-1.7.7-.6 1.4-1.3 2-2 .4-.6.5-1 .2-1.3zm-116.9 18c0-1.3-.1-2.5-.2-3.8.1.1.3.1.4.2l.3.3.4.5c.1.2.3.4.6.6.3.2.5.4.8.4.4.1.6.2.8.2l.7.1c.5.1.9.1 1.3.2.9.1 1.8.2 2.7.2h1.4c.5-.1.9-.1 1.6-.3.2-.1.4-.2.6-.5l.2-.3c.1-.2.2-.4.3-.5.2-.3.5-.6.6-.6.1-.2 1.1.1 1.7.4.4.2.7.4 1 .6.2.1.3.2.4.3l.2.2.1.1.1.1.1.1c.3.2.6.3.8.4.2.1.5.2.7.2.4.1.9.2 1.3.3.4.1.8.1 1.2.2l-10 .1-10.1.3zm25.5-1.8c.1 0 .1 0 0 0zm.5 1.4c.3-.1.6-.2.9-.8l.1-.3c0-.1.1-.1.1-.2.3-.4.9-.7 1.7-.8h.6c.1 0 .2 0 .4.1.3.1.6.4.9.6.3.3.7.6 1.2.9.2.1.5.2.8.3.2.1.5.1.7.1.2 0 .4.1.7.1h-8.1zm59.1.4c-7 .1-14 .2-20.9.2-6.5 0-13-.2-19.5-.4.2-.1.6-.3.7-.4.3-.3.7-.5 1-.7 1.4-.9 3.1-1.5 4.6-1.2.7.2 1.5.7 2.3 1.1.8.4 1.6.8 2.5 1 .5.1.9.1 1.4 0 .4-.1.9-.2 1.4-.5.9-.6 1.2-1.5 1.7-2.1.3-.3.4-.4.7-.3.3.1.6.4 1 .7.7.5 1.5 1 2.3 1.3.8.4 1.7.6 2.6.7.9.1 1.8 0 2.7-.1.9-.1 1.8-.3 2.6-.5.9-.3 1.7-.5 2.5-1.1.7-.7 1.2-1.3 1.8-1.8.3-.2.7-.5 1-.5.3-.1.6.1.8.4.2.3.4.7.6 1.1.2.4.4.9.8 1.2 1 .7 2 .3 2.8.2.8-.1 1.6-.2 2.4-.2l.2 1.9zm28.7-16.2c-.6.6-1.3 1.1-2 1.5-.4.2-.7.4-1.1.5-.2.1-.3.1-.6.1h-.2c-.8-1.5-1.6-2.9-2.6-4.3-1.2-1.7-2.4-3.4-3.9-4.9.9 2 2 3.7 3.1 5.5.9 1.3 1.9 2.6 3 3.9h-.2c-.5.2-1.1.4-1.5.9-.4.5-.6 1.1-.5 1.7-.1 1.2.4 2 .3 2.6 0 .3-.1.4-.2.6-.2.2-.6.3-.9.5-1.5.5-3.3.5-4.7-.1-.2-.1-.4-.2-.5-.2l-.3-.2c-.1-.1-.2-.1-.4-.2-.9-2.5-1.9-4.9-3-7.2-1.3-2.7-2.6-5.3-4.3-7.8.9 2.9 2.1 5.6 3.4 8.2 1.1 2.3 2.3 4.5 3.6 6.7h-.7c-.3.1-.6.3-.8.4-.8.7-1.2 1.4-1.7 2.1-.3.3-.5.6-.8.9-.3.3-.6.4-1 .5-.8.2-1.6.4-2.5.5-3.4.5-6.9.8-10.4 1.2-.4.1-.9.1-1.3.2-.4 0-.8 0-1-.2-.4-.3-.6-1.1-1-1.7-.4-2.3-.9-4.5-1.5-6.8-.8-2.7-1.6-5.4-2.8-8.1.4 2.8 1.1 5.6 1.8 8.3.5 1.9 1.1 3.8 1.8 5.7-.1-.1-.1-.1-.2-.1-.3-.1-.6-.1-.8-.1-.5.1-.9.4-1.3.7-.7.6-1.3 1.3-1.9 1.9-.6.5-1.4.8-2.2 1-.8.2-1.7.4-2.5.5-.8.1-1.7.2-2.5.1s-1.7-.3-2.4-.7c-.8-.3-1.5-.8-2.2-1.3l-.5-.4c-.2-.1-.4-.3-.6-.4h-.1c0-2.3-.3-4.5-.6-6.7-.4-2.4-.9-4.8-1.6-7.1 0 2.4.3 4.9.7 7.2.4 2.2.8 4.4 1.5 6.5-.2 0-.4 0-.7.1-.3.1-.5.3-.6.5-.6.8-.9 1.5-1.5 1.9-.3.2-.7.3-1.1.4-.4.1-.8.1-1.2 0-.8-.1-1.6-.5-2.3-.9l-1.1-.6c-.4-.2-.8-.5-1.3-.6-.9-.3-1.9-.1-2.8.1-.9.2-1.7.6-2.5 1.1l-.9.6c.2-1.5.1-2.9.1-4.4-.1-1.8-.3-3.6-.8-5.4-.3 1.8-.3 3.6-.2 5.4.1 1.5.2 3.1.6 4.6-.1.1-.2.1-.3.2-.2.1-.3.1-.6.1-.8.1-1.7.1-2.5.1-1.7-.1-3.4-.2-5.2-.4-.9-.1-1.7-.2-2.6-.4-.2 0-.4-.1-.6-.1-.2-.1-.3-.1-.4-.2-.3-.2-.6-.4-.9-.7s-.7-.6-1.2-.9c-.3-.1-.6-.2-.9-.2h-.7c-.5 0-1 .1-1.5.3-.3.1-.7.3-1 .6.1-.7.2-1.3.2-2l.3-3.9c.1-2.6.2-5.3 0-7.9-.6 2.6-.8 5.2-.9 7.9-.1 1.3-.1 2.6-.1 4 0 .8 0 1.7.1 2.5-.1.1-.1.2-.2.3 0 .1-.1.1-.1.2h-.1c-.3.1-.7.1-1.1.1-.8 0-1.7 0-2.5-.1s-1.7-.2-2.5-.4l-1.2-.3c-.4-.1-.8-.3-.9-.4l-.1-.1-.3-.3c-.2-.2-.4-.3-.6-.5-.4-.3-.8-.5-1.2-.7-.4-.2-.9-.4-1.4-.5-.3-.1-.5-.1-.9-.1s-.7.1-1 .2c-.4.2-.6.4-.9.7.3-1.2.6-2.4.8-3.6.3-2 .6-4.1.5-6.1-.7 1.9-1.2 4-1.5 6-.2 1-.3 2-.4 3.1 0 .6-.1 1.1-.1 1.6l-.1.1-.1.2c-.2.1-.6.1-.9.1h-1.2c-.8 0-1.7-.1-2.5-.2-.4 0-.8-.1-1.3-.1l-.6-.1c-.2 0-.4-.1-.5-.1-.3-.1-.4-.2-.7-.5l-.4-.5c-.1-.1-.4-.5-.7-.6-1-.6-1.8-.8-2.8-1-.5-.1-1-.1-1.5-.1-.3 0-.5.1-.8.2.8-1.9 1.5-3.9 2.1-5.9.8-2.8 1.6-5.5 2.1-8.4-1.2 2.6-2.2 5.4-3 8.1-.7 2.1-1.3 4.3-1.7 6.5-.1 0-.1.1-.2.1-.8.6-1.4 1.1-2 1.6-.3.2-.7.5-1 .6-.1.1-.3.1-.3.1-.1 0-.2-.1-.2-.1-.7-.3-1.4-.7-2-1.2-.3-.2-.5-.5-.5-.7v-.2c.1-.3.1-.8-.2-1.3-.3-.4-.7-.6-1-.6-.3-.1-.6-.1-.9 0-.6.1-1.1.3-1.6.7l-.4.4h-.1c-.3 0-.7-.1-1.1-.2-.8-.2-1.6-.6-2.3-.9l-1.2-.5-.6-.3c-.2-.1-.3-.1-.5-.2-.6-.4-1-1-1.2-1.6v-.7l.1-.3v-.6c1.3-1.9 2.5-3.8 3.6-5.8 1.4-2.5 2.7-5.1 3.8-7.8-1.8 2.3-3.2 4.8-4.7 7.3-1 1.9-2 3.7-2.9 5.7-.1-.2-.2-.4-.2-.5-.5-.9-1.2-1.5-1.9-2.1-.8-.6-1.5-1.1-2.7-1.2-.6 0-1.1.3-1.5.4-.4.1-.7.2-1 .2-1.3 0-2.4-1.4-3.1-2.8l5.4-6.9 2.7-3.7 1.3-1.8.7-.9.3-.5.2-.2c0-.1.1-.1.1-.1l.1.1.2.2.4.4c.3.2.5.4.8.7.5.4 1.1.8 1.7 1.2 1.2.8 2.4 1.4 3.6 2 2.5 1.2 5.1 2.2 7.7 3 5.3 1.7 10.7 2.7 16.1 3.6 5.4.8 10.9 1.2 16.4 1.5 5.5.2 11 .3 16.5.2 11-.3 22-.9 32.9-2.3 5.5-.7 10.9-1.6 16.3-3 1.3-.4 2.7-.7 4-1.1 1.3-.4 2.7-.8 4-1.3 1.3-.5 2.6-1 3.9-1.6.6-.3 1.3-.6 1.9-1l.9-.6s.1 0 .1-.1l9.6 13.1c-1 .2-1.5.7-2 1.1z" fill="#2c100c" stroke-width="none" opacity="1"></path><path id="SvgjsPath9436" d="M170.6 200.7c-.9-1.8-2.4-3.3-3.6-4.9-1.2-1.6-2.4-3.3-3.5-4.9-.1-.2-.4 0-.3.2 1.9 3.4 3.9 7.5 6.9 10.1.3.2.7-.1.5-.5zm-19.5-1.4c-.1-.2-.5 0-.4.2 1.5 3.4 2.7 7.2 4.6 10.4-1.5.1-2.4 2-3.8 2.7-3 1.7-7 1.5-10.2 2.7-.3.1-.2.5.1.5 2.9 0 5.9-.6 8.7-1.2.9-.2 1.8-.4 2.6-.9 1.4-.9 1.7-2.4 3.4-2.9.3 0 .5-.3.4-.6-1-3.8-3.4-7.5-5.4-10.9zm13.7 6.8c-1.1-.1-1.9 1.1-1.8 2.1 0 .7.6 1.2.7 1.9.2 1.2-1.3 1.2-1.9 1-.5-.1-1.1-.4-1.5-.7-.2-.1-.4.2-.2.3 1.1.9 2.9 1.9 4.1.5.4-.5.5-1.1.3-1.7-.1-.5-.5-1-.5-1.5 0-.6.6-1.1 1.1-1.5 0 0-.1-.3-.3-.4zm-30.1 6.4c-1-4.3-2.5-8.5-3.6-12.7-.1-.2-.4-.2-.4.1.5 4.4 1.4 9 3.2 13 .2.5.9.1.8-.4zm.3.9c-1.5-.2-2.6.5-3.8 1.4-2.8 2.1-5.6 3-8.9 1.2-.1-.1-.3.1-.2.2 1.6 1.3 3.3 1.9 5.4 1.6 2.9-.4 4.6-2.9 7.4-3.6.5-.2.5-.8.1-.8zM115.3 203c-.1-.3-.6-.3-.6.1.2 2 .5 4 .8 6 .3 2 .4 4.1 1.2 5.9.1.3.6.1.6-.2.2-1.9-.4-3.8-.8-5.6-.3-2-.6-4.2-1.2-6.2zm0 12.6c-2.4.9-4.2-1.2-6.4-1.5-1.9-.2-3.4.4-4.8 1.6-.2.2.1.5.3.4 1.3-.9 3.1-1.4 4.8-1.1 1.3.3 2.3 1.3 3.6 1.7 1.2.4 2.2.4 3-.6.1-.3-.2-.6-.5-.5zm-14.5.9c-1.3-.4-2.2-.2-3.5-.1-3.1.4-4.2-.4-6.7-1.6-1.8-.9-3.5-1.2-5.1.1-.2.1.1.4.2.3 3.2-1.4 5.2 1.3 7.9 2.1 2.3.7 4.5-.7 6.8 0 .7.3 1-.6.4-.8zm-18.5-.6c-4.3 1.2-7.2-4.1-11.3-2.9-.3.1-.3.5 0 .6 2.5.7 4.6 2 7 2.9 1.6.6 3.1.7 4.6 0 .4-.2.1-.7-.3-.6zm-17.4-1.4c-.4-.1-.8.1-1.2 0-1.7-.2-1.6-.8-2.6-1.6-1.6-1.3-3.5-1.3-5.5-.9 1.9-3.7 3.9-8.6 3.8-12.9 0-.3-.4-.4-.5-.1-.9 1.9-1.3 4-1.8 6.1-.7 2.3-1.4 4.6-2 6.9v.2c-.1.1 0 .3.1.3 1.3.1 2.8 0 4 .5 1.1.5 1.5 1.4 2.4 2.1 1.3 1 2.8.1 4.1.9.3.2.8-.2.6-.6-.3-.6-.7-.8-1.4-.9zm-19.4-19.1c.2-.4-.5-.6-.7-.3-3.1 4.3-5.8 9.1-8.8 13.5-.2.3.3.7.5.4 3.6-3.9 7.1-8.7 9-13.6zm5.6 18.3c-1.2.1-2-2.5-2.8-3.2-.6-.5-1.3-.8-2.1-.9-.5 0-.8 0-1.2.1 2.3-3.1 4.5-6.6 5.6-10.2.1-.3-.3-.4-.5-.2-2.4 3.4-4.3 7.3-6.4 10.9-.2.1-.4.2-.6.2-.5.6-1 .7-1.7.3-.7 0-1.4-.2-1.9-.6-.8-.4-1.7-.9-2.5-1.4-.3-.2-.8.3-.4.6 2 1.9 4.3 3.6 6.9 2.5 3.3-1.4 3.1-1.3 5.2 1.3.4.5.3.8.9 1.2.7.5 1.1.4 1.8 0 .2 0 .1-.6-.3-.6zm-14.8-9.6c-.4-1.2-1.6-2-2.8-2.4-.7-.2-1.4-.3-2.1-.2-.7.1-5.1 1.4-4.1-.9.1-.3-.3-.6-.5-.3-.8 1.2 0 2.4 1.3 2.7 1.2.3 2.3-.4 3.5-.5 1.7-.1 2.7 1 3.8 2 .5.4 1.1.1.9-.4zm68.3 9.9c.2-3.3-.3-6.7-1.2-9.9-.1-.3-.6-.3-.6.1.3 3.3.6 6.7 1.3 9.9.1.2.5.1.5-.1z" fill="#5a3834" stroke-width="none" opacity="1"></path></g><g id="svga-group-head" transform="matrix(1,0,0,1,0,0)"><g id="svga-group-ears-left-move" transform="matrix(1,0,0,1,0,0)"><g id="svga-group-ears-left" transform="matrix(1,0,0,1,0,0)"><path id="SvgjsPath5287" d="M63.5 96.9s-3-5.1-4.6-7.4c-1.7-2.3-3.8-4.7-4.6-.7s-.8 11.6.3 16.9c1.1 5.2 5.8 10.5 7.8 10.5s3.4-7.9 3.3-10.6c-.1-2.7-1.1-6.7-2.2-8.7z" fill="#ffd0bc" stroke-width="none" opacity="1" stroke="none"></path><path id="SvgjsPath5288" d="M65.1 96.3c.3.7-.2 4.1 0 4.9.4 1.5.7 3.1.8 4.7 0 1.6-.1 3.1-.4 4.5-.2 1.4-.6 2.8-1 4.1-.2.6-.5 1.2-.9 1.7-.2.2-.4.5-.7.6-.1.1-.3.1-.5.1s-.3 0-.5-.1c-.6-.2-1.1-.5-1.6-.9-.3-.2-.5-.4-.7-.6l-.7-.7c-.9-1-1.8-2.2-2.5-3.5s-1.4-2.7-1.8-4.3l-.3-1.2c-.1-.4-.1-.8-.2-1.2-.1-.8-.2-1.6-.3-2.3-.2-1.5-.2-3.1-.3-4.6-.1-3-.1-6.1.3-9 .1-.7.3-1.5.8-2l.2-.2c.1 0 .1-.1.2-.1.1-.1.3-.1.4-.2.1 0 5.3.5 6 1.8.8 1.4 3.5 7.8 3.7 8.5zM58.8 90c-.8-1-1.7-2.1-2.5-2.5-.4-.2-.8-.2-1 .2-.3.3-.5.9-.6 1.5-.3 1.3-.5 2.7-.6 4.1s-.2 2.9-.2 4.4.1 3 .3 4.5c.1.8.2 1.5.4 2.3.1.4.2.7.2 1.1.1.4.2.7.3 1.1.5 1.4 1.1 2.7 1.9 3.9.7 1.2 1.6 2.2 2.4 3.1.8.9 1.8 1.6 2.6 1.8.7.2 1.3-.9 1.7-1.9.4-1.1.8-2.4 1-3.7.3-1.3.5-2.7.6-4.1 0-1.4-.2-3-.5-4.5s-.8-3-1.5-4.3c-1.3-2.5-2.9-4.9-4.5-7z" fill="#f0b399" stroke-width="none" opacity="1" stroke="none"></path><path id="SvgjsPath5289" d="M56.8 93.1c1.5 1.2 2.9 3.3 3.5 5.7 0 .2-.1.2-.2.1 0 0 0-.1-.1-.1-.4-.5-1-1.1-1.4-1-.8.1-.6 1.4-.3 2.5.4 1.5 1 2.8 1.7 4.1.1.1 0 .3-.1.2-1-1.4-2.5-4.4-2.3-6.4.2-1.7 1.4-1 2.2-.1-.6-1.3-1.2-2.4-2-3.4-1-1.2-3.2-3.1-3.5-.6 0 .1-.2.1-.2-.1-.1-2.3 1.7-1.7 2.7-.9z" fill="#e09879" stroke-width="none" opacity="1" stroke="none"></path><path id="SvgjsPath5290" d="M60.7 107.4c.9 2.4-.6 3.1-1.6 2.1-1.6-1.6-2.9-5.2-3.2-8.2 0-.2.1-.2.2 0 .3 1.7.6 3.2 1.3 4.7.4.9.9 1.9 1.4 2.5.3.5.7.8 1.1 1 .8-.1 1.1-.8.7-2.1-.1 0 0-.1.1 0z" fill="#e09879" stroke-width="none" opacity="1" stroke="none"></path></g></g><g id="svga-group-ears-right-move" transform="matrix(1,0,0,1,0,0)"><g id="svga-group-ears-right" transform="matrix(1,0,0,1,0,0)"><path id="SvgjsPath5291" d="M136.5 96.9s3-5.1 4.6-7.4c1.7-2.3 3.8-4.7 4.6-.7s.8 11.6-.3 16.9c-1.1 5.2-5.8 10.5-7.8 10.5s-3.4-7.9-3.3-10.6 1.1-6.7 2.2-8.7z" fill="#ffd0bc" stroke-width="none" opacity="1" stroke="none"></path><path id="SvgjsPath5292" d="M138.5 87.9c.7-1.3 5.9-1.8 6-1.8s.3.1.4.2c.1 0 .1.1.2.1l.2.2c.4.5.6 1.3.8 2 .5 2.9.4 6 .3 9-.1 1.5-.1 3.1-.3 4.6-.1.8-.2 1.5-.3 2.3-.1.4-.1.8-.2 1.2l-.3 1.2c-.4 1.6-1.1 3-1.8 4.3s-1.6 2.5-2.5 3.5c-.2.3-.5.5-.7.7s-.5.4-.7.6c-.5.4-1 .7-1.6.9-.2 0-.3.1-.5.1s-.3-.1-.5-.1c-.3-.1-.5-.4-.7-.6-.4-.5-.7-1.1-.9-1.7-.5-1.3-.8-2.6-1-4.1-.2-1.4-.4-2.9-.4-4.5.1-1.6.4-3.2.8-4.7.2-.8-.3-4.2 0-4.9.3-.8 3-7.2 3.7-8.5zm-1.9 9.1c-.7 1.3-1.1 2.8-1.5 4.3-.3 1.5-.5 3-.5 4.5.1 1.4.3 2.8.6 4.1.3 1.3.6 2.6 1 3.7s1 2.2 1.7 1.9c.8-.2 1.8-1 2.6-1.8.9-.9 1.7-1.9 2.4-3.1s1.4-2.4 1.9-3.9c.1-.4.2-.7.3-1.1s.2-.7.2-1.1c.1-.8.3-1.5.4-2.3.2-1.5.3-3 .3-4.5s0-3-.2-4.4c-.1-1.4-.3-2.8-.6-4.1-.1-.6-.3-1.2-.6-1.5s-.6-.4-1-.2c-.8.5-1.7 1.5-2.5 2.5-1.5 2.1-3.1 4.5-4.5 7z" fill="#f0b399" stroke-width="none" opacity="1" stroke="none"></path><path id="SvgjsPath5293" d="M143.2 93.1c-1.5 1.2-2.9 3.3-3.5 5.7 0 .2.1.2.2.1 0 0 0-.1.1-.1.4-.5 1-1.1 1.4-1 .8.1.6 1.4.3 2.5-.4 1.5-1 2.8-1.7 4.1-.1.1 0 .3.1.2 1-1.4 2.5-4.4 2.3-6.4-.2-1.7-1.4-1-2.2-.1.6-1.3 1.2-2.4 2-3.4 1-1.2 3.2-3.1 3.5-.6 0 .1.2.1.2-.1.1-2.3-1.7-1.7-2.7-.9z" fill="#e09879" stroke-width="none" opacity="1" stroke="none"></path><path id="SvgjsPath5294" d="M139.3 107.4c-.9 2.4.6 3.1 1.6 2.1 1.6-1.6 2.9-5.2 3.2-8.2 0-.2-.1-.2-.2 0-.3 1.7-.6 3.2-1.3 4.7-.4.9-.9 1.9-1.4 2.5-.3.5-.7.8-1.1 1-.8-.1-1.1-.8-.7-2.1.1 0 0-.1-.1 0z" fill="#e09879" stroke-width="none" opacity="1" stroke="none"></path></g></g><g id="svga-group-faceshape-wrap" transform="matrix(1,0,0,1,0,0)"><g id="svga-group-faceshape-single"><path id="SvgjsPath8055" d="M100.06 41.44C78.66 41.44 60.2 56.9 59 85.4c0 0 .35 20.61 3.05 28.21 1 3 11.92 22.35 21.12 32.05 5 5.2 11.95 7.2 16.75 7.2s11.8-2.52 16.7-7.72c9.3-9.8 19.94-28.25 20.94-31.15 2.7-7.7 3.43-28.59 3.43-28.59-1.19-28.4-19.53-43.96-40.93-43.96z" fill="#ffd0bc" stroke-width="none" opacity="1" stroke="none"></path><path id="SvgjsPath8056" d="M100 41.3c-21.4 0-39.8 15.6-41 44.1 0 0 0 20.6 2.7 28.2 1 3 12.2 22.7 21.4 32.4 5 5.2 12.1 7.4 16.9 7.4s12-2.2 16.9-7.4c9.3-9.8 20.4-29.5 21.4-32.4 2.7-7.7 2.7-28.2 2.7-28.2-1.2-28.4-19.6-44.1-41-44.1zm30.1 16 .7 1 .6 1c1.6 2.6 2.9 5.4 3.9 8.3l1.1 3.3s1 4.2 1.3 5.7l.2 1.1.1.6.1.6.1 1.1c0 .4.1.8.1 1.1.1.8.1 1.5.2 2.3l.1 2.2-.1 2.3-.1 2.4c-.1 1.6-.1 3.2-.2 4.7-.2 3.2-.4 6.3-.7 9.4l-.1 1.2c0 .4-.1.8-.2 1.1l-.2 1.1-.2 1.1c-.1.8-.3 1.5-.4 2.2-.1.4-.2.7-.3 1s-.2.7-.3.9l-.4.9c-.1.3-1.2 2.4-1.6 3.1-.4.7-.8 1.4-1.1 2.1l-1.2 2.1c-1.6 2.7-3.2 5.5-4.9 8.1-1.7 2.7-3.4 5.3-5.3 7.9-1.8 2.5-3.7 5.1-5.8 7.4-1 1.1-2.1 2.1-3.2 3-1.2.9-2.5 1.7-3.8 2.3-1.3.7-2.8 1.2-4.2 1.6-1.4.4-2.9.6-4.4.7-1.5 0-3-.1-4.5-.4-1.5-.3-3-.7-4.4-1.3s-2.8-1.3-4.1-2.1c-1.3-.9-2.5-1.8-3.5-2.9l-1.6-1.7-1.5-1.8c-1-1.2-2-2.5-2.9-3.8-1.9-2.5-3.7-5.2-5.4-7.9-1.7-2.7-3.3-5.4-4.8-8.2l-1.1-2.1c-.4-.7-.7-1.4-1.1-2.1s-.7-1.4-1-2.1c-.2-.4-.3-.7-.5-1.1s-.3-.7-.4-1c-.4-1.4-.7-2.9-.9-4.4l-.3-2.4c0-.4-.1-.8-.1-1.2l-.1-1.2c-.2-3.1-.3-6.3-.4-9.5 0-1.6-.1-3.2-.1-4.8V85.5c-.02-3.75.7-7.4.7-7.4l.1-.6.2-1.1c1.1-6 3.1-11.9 6.4-17.2 1.6-2.6 3.5-5.1 5.7-7.3s4.7-4.1 7.5-5.7c.7-.4 1.4-.8 2.1-1.1l1.1-.5s1.8-.7 2.2-.8c0 0 1.9-.6 2.2-.7.4-.1 2.6-.7 3.4-.8l2.4-.4a38.663 38.663 0 0 1 9.6 0l2.4.4c.8.1 3.1.7 3.4.8.4.1.8.2 1.1.3 0 0 1.8.7 2.2.8l2.2.9c.7.3 1.4.7 2.1 1.1 2.7 1.5 5.2 3.5 7.5 5.7.3.3.5.6.8.8.3.3.5.6.8.8l.8.9c.3.3.5.6.7.9.4.7.9 1.3 1.3 2z" fill="#d17f5b" stroke-width="none" opacity="1" stroke="none"></path></g></g><g id="svga-group-mouth-single-move" transform="matrix(1,0,0,1,0,0)"><g id="svga-group-mouth-single" transform="matrix(1,0,0,1,0,0)"><path id="SvgjsPath5275" d="M86.9 128.6s2-.5 3.7-2.3c1.8-1.8 2.3-2.2 3.2-2.6 1-.4 3.2-1 4.9.4 1.6 1.3 2 .5 2.7 0s2-1.4 4.2-.6 4.3 3.4 5.6 4.1 2.2.9 2.2.9-1.7 2.4-3.1 3.8c-1.9 2-4.3 2.7-8.6 3-4.3.3-7.2-.5-9-1.7-1.9-1.2-3.5-3.2-3.9-3.6-.5-.5-1.9-1.4-1.9-1.4z" fill="#e66638" stroke-width="none" opacity="1" transform="translate(0 3)" stroke="none"></path><path id="SvgjsPath5276" d="M86.2 128.6c1.8.9 3.6.8 5.5.4 1.4-.3 2.9-.6 4.3-.5s2.7.8 4.2.9c1.1 0 2-.4 3-.7 1.9-.6 3.5-.3 5.4.1 1.9.4 4 1 5.7-.2.3-.2.1-.6-.2-.6-2.7.5-4.7-.2-7.4-.6-2.4-.4-4.4 1.1-6.8.8-2-.2-3.5-1-5.5-.7-2.7.3-5.2 1.4-7.9.4-.4 0-.6.6-.3.7z" fill="#d74f1f" stroke-width="none" opacity="1" transform="translate(0 3)" stroke="none"></path><path id="SvgjsPath5277" d="M109.8 130.3c-4.4.3-8.6 1.8-13 1.6-.2 0-.3.3-.1.4 4.3 1.1 9.6 1.4 13.2-1.8.1-.1 0-.2-.1-.2z" fill="#f57f54" stroke-width="none" opacity="1" transform="translate(0 3)" stroke="none"></path></g></g><g id="svga-group-eyes-left-move" transform="matrix(1,0,0,1,0,0)"><g id="svga-group-eyes-left" transform="matrix(1,0,0,1,0,0)"><g id="svga-group-eyesback-left"><path id="SvgjsPath8441" d="M92.1 98.1s-3.5 2.7-5.9 3.2c-2.4.5-6.1.8-9.4-.1-3.2-1-4.9-2.8-4.9-2.8s1.4-2.6 3.4-3.6 4.1-2.6 8.6-1.9 7.3 3.7 8.2 5.2z" fill="#ffffff" stroke-width="none" opacity="1"></path></g><g id="svga-group-eyesiriswrapper-left" transform="matrix(1,0,0,1,0,0)"><g id="svga-group-eyesiriscontrol-left" transform="matrix(1,0,0,1,0,0)"><g id="svga-group-eyesiris-left" transform="matrix(1,0,0,1,0,0)"><path id="SvgjsPath8803" d="M82 91.5c2.7 0 4.9 2.2 4.9 4.9s-2.2 4.9-4.9 4.9-4.9-2.2-4.9-4.9 2.2-4.9 4.9-4.9z" fill="#9b1d1b" stroke-width="none" opacity="1" stroke="none"></path><path id="SvgjsPath8804" d="M82 93.8c1.4 0 2.6 1.2 2.6 2.6S83.4 99 82 99s-2.6-1.2-2.6-2.6 1.2-2.6 2.6-2.6z" fill="#000000" stroke-width="none" opacity="1"></path><path id="SvgjsPath8805" d="m81.3 94.3-.5-.5c-.2-.2-.4-.3-.7-.3s-.5.1-.7.3c-.2.2-.3.4-.3.7s.1.5.3.7l.5.5c.2.2.4.3.7.3.2 0 .5-.1.7-.3.4-.5.4-1 0-1.4zm2.5 4.4c.8 0 .8-1.3 0-1.3s-.9 1.3 0 1.3z" fill="#ffffff" stroke-width="none" opacity="1"></path></g></g></g><g id="svga-group-eyesfront-left"><path id="SvgjsPath8449" d="M70.7 98c0 6.9 4.9 12.5 11 12.5s11-5.6 11-12.5-4.9-12.5-11-12.5-11 5.6-11 12.5zm1.2.4s1.4-2.6 3.4-3.6 4.1-2.6 8.6-1.9c4.5.7 7.2 3.6 8.2 5.1 0 0-3.5 2.7-5.9 3.2-2.4.5-6.1.8-9.4-.1-3.2-.9-4.9-2.7-4.9-2.7z" fill="#ffd0bc" stroke-width="none" opacity="1"></path><path id="SvgjsPath8450" d="M91 96.6s-2.7-3.5-7.8-3.9c-5.1-.5-9.4 2.8-11.3 5.7 0 0-2 .5-3.3-.7 0 0 2 .1 4.3-2.1 2.1-2.1 5.6-4 9.8-3.4 4.5.5 6.4 1.8 8.3 4.4z" fill="#f0b399" stroke-width="none" opacity="1"></path><path id="SvgjsPath8451" d="M69.9 95.9c-.1-.1 0-.2.1-.2 1.2.7 2.2.7 3.3.2.4-.5.9-.9 1.4-1.3-1 0-2-.4-2.6-1.2-.1-.1.1-.2.1-.1.9.7 1.9 1.1 2.9 1 .6-.4 1.1-.7 1.8-1-.6-.3-1.1-.8-1.3-1.5 0-.1.1-.2.2-.1.4.6.9 1.1 1.6 1.4.7-.3 1.4-.5 2.1-.6-.1-.1-.2-.1-.2-.2-.2-.3-.5-.7-.5-1.1 0-.1.2-.2.3-.1.2.3.2.6.4.9.1.2.2.3.4.4 4.8-.7 10.1 1.5 12.6 6 .1.2-.2.4-.3.2-2.3-3.5-6.2-5.7-10.5-5.5-3.9.2-7.1 2.4-9.6 5.4 6.2 4.1 13.4 4 19.5-.2.1-.1.3.1.1.2-3.1 2.8-7.2 4-11.1 3.8-.1.1-.2.3-.2.4-.1.2-.1.3-.2.5-.1.1-.2.1-.2-.1 0-.3.1-.6.3-.9-.8-.1-1.6-.2-2.4-.4-.1.1-.3.2-.4.4-.1.2-.2.4-.4.6-.1.1-.2 0-.2-.1 0-.3.2-.5.3-.7.1-.1.2-.2.2-.3-.6-.2-1.3-.4-1.9-.7-.2.1-.4.2-.6.4l-.6.6c-.1.1-.2 0-.2-.1.2-.4.6-.8 1.1-1-.6-.3-1.2-.6-1.7-1-.2.1-.4.1-.6.3-.3.2-.5.4-.8.6-.1.1-.2 0-.2-.1.2-.5.8-.8 1.3-1-.4-.3-.9-.6-1.3-1l-.1.1c-.1.1-.3 0-.2-.2 0 0 0-.1.1-.1 0-.1 0-.1.1-.2.3-.6.6-1.2 1-1.8-1 .4-2.1.1-2.9-.6z" fill="#2e0914" stroke-width="none" opacity="1"></path></g></g></g><g id="svga-group-eyes-right-move" transform="matrix(1,0,0,1,0,0)"><g id="svga-group-eyes-right" transform="matrix(1,0,0,1,0,0)"><g id="svga-group-eyesback-right"><path id="SvgjsPath8442" d="M107.9 98.1s3.5 2.7 5.9 3.2c2.4.5 6.1.8 9.4-.1 3.2-1 4.9-2.8 4.9-2.8s-1.4-2.6-3.4-3.6-4.1-2.6-8.6-1.9-7.3 3.7-8.2 5.2z" fill="#ffffff" stroke-width="none" opacity="1"></path></g><g id="svga-group-eyesiriswrapper-right" transform="matrix(1,0,0,1,0,0)"><g id="svga-group-eyesiriscontrol-right" transform="matrix(1,0,0,1,0,0)"><g id="svga-group-eyesiris-right" transform="matrix(1,0,0,1,0,0)"><path id="SvgjsPath8806" d="M118 91.5c2.7 0 4.9 2.2 4.9 4.9s-2.2 4.9-4.9 4.9-4.9-2.2-4.9-4.9 2.2-4.9 4.9-4.9z" fill="#9b1d1b" stroke-width="none" opacity="1" stroke="none"></path><path id="SvgjsPath8807" d="M118 93.8c1.4 0 2.6 1.2 2.6 2.6S119.4 99 118 99s-2.6-1.2-2.6-2.6 1.2-2.6 2.6-2.6z" fill="#000000" stroke-width="none" opacity="1"></path><path id="SvgjsPath8808" d="m117.4 94.3-.5-.5c-.2-.2-.4-.3-.7-.3s-.5.1-.7.3c-.2.2-.3.4-.3.7s.1.5.3.7l.5.5c.2.2.4.3.7.3.2 0 .5-.1.7-.3.3-.5.4-1 0-1.4zm2.4 4.4c.8 0 .8-1.3 0-1.3s-.8 1.3 0 1.3z" fill="#ffffff" stroke-width="none" opacity="1"></path></g></g></g><g id="svga-group-eyesfront-right"><path id="SvgjsPath8452" d="M118.3 85.5c-6.1 0-11 5.6-11 12.5s4.9 12.5 11 12.5 11-5.6 11-12.5-5-12.5-11-12.5zm4.9 15.7c-3.2 1-7 .6-9.4.1-2.4-.5-5.9-3.2-5.9-3.2.9-1.5 3.6-4.4 8.2-5.1 4.5-.7 6.7.9 8.6 1.9 2 1 3.4 3.6 3.4 3.6s-1.7 1.7-4.9 2.7z" fill="#ffd0bc" stroke-width="none" opacity="1"></path><path id="SvgjsPath8455" d="M109 96.6s2.7-3.5 7.8-3.9c5.1-.5 9.4 2.8 11.3 5.7 0 0 2 .5 3.3-.7 0 0-2 .1-4.3-2.1-2.1-2.1-5.6-4-9.8-3.4-4.5.5-6.4 1.8-8.3 4.4z" fill="#f0b399" stroke-width="none" opacity="1"></path><path id="SvgjsPath8456" d="M130.1 95.9c.1-.1 0-.2-.1-.2-1.2.7-2.2.7-3.3.2-.4-.5-.9-.9-1.4-1.3 1 0 2-.4 2.6-1.2.1-.1-.1-.2-.1-.1-.9.7-1.9 1.1-2.9 1-.6-.4-1.1-.7-1.8-1 .6-.3 1.1-.8 1.3-1.5 0-.1-.1-.2-.2-.1-.4.6-.9 1.1-1.6 1.4-.7-.3-1.4-.5-2.1-.6.1-.1.2-.1.2-.2.2-.3.5-.7.5-1.1 0-.1-.2-.2-.3-.1-.2.3-.2.6-.4.9-.1.2-.2.3-.4.4-4.8-.7-10.1 1.5-12.6 6-.1.2.2.4.3.2 2.3-3.5 6.2-5.7 10.5-5.5 3.9.2 7.1 2.4 9.6 5.4-6.2 4.1-13.4 4-19.5-.2-.1-.1-.3.1-.1.2 3.1 2.8 7.2 4 11.1 3.8.1.1.2.3.2.4.1.2.1.3.2.5.1.1.2.1.2-.1 0-.3-.1-.6-.3-.9.8-.1 1.6-.2 2.4-.4.1.1.3.2.4.4.1.2.2.4.4.6.1.1.2 0 .2-.1 0-.3-.2-.5-.3-.7-.1-.1-.2-.2-.2-.3.6-.2 1.3-.4 1.9-.7.2.1.4.2.6.4l.6.6c.1.1.2 0 .2-.1-.2-.4-.6-.8-1.1-1 .6-.3 1.2-.6 1.7-1 .2.1.4.1.6.3.3.2.5.4.8.6.1.1.2 0 .2-.1-.2-.5-.8-.8-1.3-1 .4-.3.9-.6 1.3-1l.1.1c.1.1.3 0 .2-.2 0 0 0-.1-.1-.1 0-.1 0-.1-.1-.2-.3-.6-.6-1.2-1-1.8 1 .4 2.1.1 2.9-.6z" fill="#2e0914" stroke-width="none" opacity="1"></path></g></g></g><g id="svga-group-facehighlight-single"></g><g id="svga-group-eyebrows-left-move" transform="matrix(1,0,0,1,0,0)"><g id="svga-group-eyebrows-left-rotate" transform="matrix(1,0,0,1,0,0)"><g id="svga-group-eyebrows-left" transform="matrix(1,0,0,1,0,0)"><path id="SvgjsPath8899" d="M68.8 86s.1 0 0 0c.1-.1.1-.1.1-.2.3-.6.9-1 1.4-1.3.6-.4 1.3-.9 1.9-1.3h.1c1.5-1.1 4-1.3 6-.8 1.9.2 3.8.8 5 1.3.1 0 .2.1.4.1 1.6.3 3.3.6 4.8 1.2 1.5.3 3 .5 4.4 1h.1c.1-.1.4 0 .4.2.1.2.1.4 0 .7.2 0 .3.1.3.3-.1.5-.3.9-.6 1.3v.1c-.3.8-.9 1.1-1.8 1-.1 0-.2 0-.4-.1-.1.1-.2.1-.3.1-1.6-.1-3.2-.8-4.6-1.4-.9-.4-1.9-.8-2.8-1.3-1.4-.2-2.8-.6-4.2-.9-1.3-.3-2.8-.3-4-.8-.4.1-.9.1-1.3.2-.3.1-.6.2-1 .2-1 .3-2.2.8-3.2.9h-.1c-.1 0-.1.1-.2.1-.2.2-.4.4-.7.5-.1 0-.3-.1-.3-.2 0-.5.3-.7.6-.9z" fill="#4e4341" stroke-width="none" opacity="1"></path><path id="SvgjsPath8900" d="M89.9 85.4c1.3.8 1.5 2.8 1.3 4.2 0 .3-.5.3-.6 0-.2-.7-.2-1.4-.3-2.1-.2-.6-.4-1.1-.7-1.7-.1-.3.1-.6.3-.4zm-3.2-.9c2.1.4 3.4 2.9 3.6 4.8 0 .2-.3.2-.3.1-.2-1-.6-1.9-1.2-2.7-.6-.8-1.4-1.3-2.2-2-.1-.1 0-.3.1-.2zM81 83.1c.9.2 1.9 1 2.6 1.7.7.7 1.3 1.5 1.5 2.4 0 .2-.2.3-.3.2-.5-.8-.9-1.6-1.7-2.2-.7-.6-1.6-1-2.2-1.8-.1-.2-.1-.3.1-.3zM76.3 82c2.3 0 4.7 2.1 5.4 4.2.1.2-.2.3-.3.1-.6-.9-1.2-1.8-2.1-2.5-.9-.7-1.9-1-3-1.4-.3-.1-.3-.4 0-.4zm-5.6 2.4c2.1-2.7 6.2-1.8 7.9.8.1.2-.2.4-.3.2-1-.9-2.1-1.9-3.5-2-1.5-.2-2.7.8-3.9 1.3-.3.1-.3-.2-.2-.3z" fill="#5d5857" stroke-width="none" opacity="1"></path><path id="SvgjsPath8901" d="M92.1 90.3c1.6-.4 2-2.2 2-3.7 0-.3-.4-.3-.5-.1-.2.6-.4 1.3-.7 1.8-.3.5-.7.8-1.1 1 .4-1.2.2-2.6-.6-3.7.6.1 1.1.3 1.7.4.2 0 .3-.2.1-.3-2.7-1-5.6-1.6-8.3-2.4-2.4-.7-4.9-1.4-7.3-1.7-4.6-.6-7.6 2.4-10.3 5.7-.1.1-.2.2-.3.2-.4.3 0 .9.4.6 2.5-1.5 5-2.4 7.9-2.4 3.1.1 6.2 1.1 9.2 2.1 1.6.6 3.1 1.2 4.6 1.8 1 .6 2.1 1 3.2.7zm-20-6.8c1-.7 2.1-1 3.1-1.1.8.4 1.6.8 2.3 1.4.5.5.9 1.1 1.3 1.6-.1 0-.2-.1-.4-.1-3.4-.7-6.6-.4-9.5 1 1-1 2-2 3.2-2.8zm19.3 6c-.5 0-1.1-.1-1.7-.3-1.2-.4-2.4-1-3.6-1.5-.2-.1-.4-.1-.6-.2 0-.9-.3-1.8-.9-2.4-.1-.1-.3 0-.2.2.3.7.7 1.4.9 2.1-.8-.3-1.5-.6-2.3-.8-.7-1.5-2.1-3.1-3.6-3.8-.2-.1-.3.2-.2.3.6.6 1.3 1 1.9 1.7.5.5.9 1.1 1.3 1.7-1-.3-1.9-.6-2.9-.8-.2-.8-.9-1.6-1.5-2.1-.4-.4-1-.8-1.5-1.1.9 0 1.9.1 2.8.3 3.8.8 7.6 1.9 11.4 2.8.8 1.2 1 2.5.7 3.9z" fill="#3f312e" stroke-width="none" opacity="1"></path></g></g></g><g id="svga-group-eyebrows-right-move" transform="matrix(1,0,0,1,0,0)"><g id="svga-group-eyebrows-right-rotate" transform="matrix(1,0,0,1,0,0)"><g id="svga-group-eyebrows-right" transform="matrix(1,0,0,1,0,0)"><path id="SvgjsPath8902" d="M131.2 86s-.1 0 0 0c-.1-.1-.1-.1-.1-.2-.3-.6-.9-1-1.4-1.3-.6-.4-1.3-.9-1.9-1.3h-.1c-1.5-1.1-4-1.3-6-.8-1.9.2-3.8.8-5 1.3-.1 0-.2.1-.4.1-1.6.3-3.3.6-4.8 1.2-1.5.3-3 .5-4.4 1h-.1c-.1-.1-.4 0-.4.2-.1.2-.1.4 0 .7-.2 0-.3.1-.3.3.1.5.3.9.6 1.3v.1c.3.8.9 1.1 1.8 1 .1 0 .2 0 .4-.1.1.1.2.1.3.1 1.6-.1 3.2-.8 4.6-1.4.9-.4 1.9-.8 2.8-1.3 1.4-.2 2.8-.6 4.2-.9 1.3-.3 2.8-.3 4-.8.4.1.9.1 1.3.2.3.1.6.2 1 .2 1 .3 2.2.8 3.2.9h.1c.1 0 .1.1.2.1.2.2.4.4.7.5.1 0 .3-.1.3-.2 0-.5-.3-.7-.6-.9z" fill="#4e4341" stroke-width="none" opacity="1"></path><path id="SvgjsPath8903" d="M110.1 85.4c-1.3.8-1.5 2.8-1.3 4.2 0 .3.5.3.6 0 .2-.7.2-1.4.3-2.1.2-.6.4-1.1.7-1.7.1-.3-.1-.6-.3-.4zm3.2-.9c-2.1.4-3.4 2.9-3.6 4.8 0 .2.3.2.3.1.2-1 .6-1.9 1.2-2.7.6-.8 1.4-1.3 2.2-2 .1-.1 0-.3-.1-.2zm5.7-1.4c-.9.2-1.9 1-2.6 1.7-.7.7-1.3 1.5-1.5 2.4 0 .2.2.3.3.2.5-.8.9-1.6 1.7-2.2.7-.6 1.6-1 2.2-1.8.1-.2.1-.3-.1-.3zm4.7-1.1c-2.3 0-4.7 2.1-5.4 4.2-.1.2.2.3.3.1.6-.9 1.2-1.8 2.1-2.5.9-.7 1.9-1 3-1.4.3-.1.3-.4 0-.4zm5.6 2.4c-2.1-2.7-6.2-1.8-7.9.8-.1.2.2.4.3.2 1-.9 2.1-1.9 3.5-2 1.5-.2 2.7.8 4 1.3.2.1.2-.2.1-.3z" fill="#5d5857" stroke-width="none" opacity="1"></path><path id="SvgjsPath8904" d="M111.1 89.8c1.5-.6 3.1-1.2 4.6-1.8 2.9-1 6.1-2.1 9.2-2.1 2.9-.1 5.5.9 7.9 2.4.4.2.8-.4.4-.6-.1-.1-.2-.2-.4-.2-2.7-3.3-5.7-6.2-10.3-5.7-2.5.3-4.9 1.1-7.3 1.7-2.8.8-5.6 1.4-8.3 2.4-.2.1-.1.3.1.3.6-.1 1.1-.2 1.7-.4-.8 1-1 2.5-.6 3.7-.4-.1-.8-.4-1.1-1-.3-.6-.4-1.2-.7-1.8-.1-.2-.5-.2-.5.1.1 1.4.5 3.2 2 3.7 1.2.1 2.3-.3 3.3-.7zm19.9-3.5c-3-1.4-6.2-1.7-9.5-1-.1 0-.2.1-.4.1.4-.5.8-1.1 1.3-1.6.7-.6 1.5-.9 2.3-1.4 1.1.1 2.1.5 3.1 1.1 1.3.8 2.3 1.8 3.2 2.8zm-21.6-.7c3.8-.9 7.6-2 11.4-2.8 1-.2 1.9-.3 2.8-.3-.6.3-1.1.7-1.5 1.1-.6.5-1.3 1.3-1.5 2.1-1 .2-2 .5-2.9.8.4-.6.8-1.2 1.3-1.7.6-.6 1.3-1.1 1.9-1.7.1-.1 0-.3-.2-.3-1.5.6-2.9 2.2-3.6 3.8-.8.2-1.6.5-2.3.8.2-.7.5-1.4.9-2.1.1-.2-.1-.3-.2-.2-.6.6-.9 1.6-.9 2.4-.2.1-.4.1-.6.2-1.2.5-2.4 1.1-3.6 1.5-.6.2-1.2.4-1.7.3-.4-1.4-.2-2.7.7-3.9z" fill="#3f312e" stroke-width="none" opacity="1"></path></g></g></g><g id="svga-group-nose-single-move" transform="matrix(1,0,0,1,0,0)"><g id="svga-group-nose-single" transform="matrix(1,0,0,1,0,0)"><path id="SvgjsPath8283" d="M106.75 109.06c-.14-.13-.4-.01-.34.2.39 1.23 1.61 1.94 2.03 3.16.29.85.04 1.89-.65 2.49-1.06.93-2.37.55-3.35-.25a.193.193 0 0 0-.1-.03c.38-.17.79-.29 1.26-.29.23 0 .29-.3.11-.42-1.49-1.03-2.69.78-3.88 1.42-2.41 1.3-4.51-1.6-6.9-1.44-.19.01-.23.27-.04.33.29.1.59.24.89.38-.41.19-.81.42-1.25.51-1.03.2-2.06-.29-2.59-1.18-1.15-1.92.57-3.53 1.79-4.8.09-.09-.02-.23-.13-.17-1.91 1.03-3.51 3.63-2.03 5.65.99 1.35 3.76 1.95 4.62.19 1.37.69 2.76 1.56 4.23 1.64 1.61.09 2.55-1.16 3.82-1.77-.05.04-.07.1-.03.18 1.13 1.64 3.6 1.43 4.62-.22 1.27-2.08-.59-4.22-2.08-5.58z" fill="#d17f5b" stroke-width="none" opacity="1" transform="translate(0 2)" stroke="none"></path><path id="SvgjsPath8284" d="M95.24 108.25c1.08-.47 2.16-.9 3.33-1.1 1.16-.2 2.31-.07 3.48-.13.14-.01.16-.2.03-.24-1.44-.52-3.18-.36-4.74.18 1.41-2.2 1.99-5.13 1.49-7.67-.04-.18-.3-.13-.31.04-.1 2.83-.6 5.21-1.66 7.8-.64.26-1.23.57-1.74.93-.12.07-.01.24.12.19z" fill="#d17f5b" stroke-width="none" opacity="1" transform="translate(0 2)" stroke="none"></path><path id="SvgjsPath8285" d="M105.07 109.02c-1.96-2.22-5.99-2.01-8.05-.09-.24.23-.14.72.21.79 1.07.19 2.08.09 3.16.11 1.29.03 2.11.47 3.12 1.23 1.22.91 2.47-1 1.56-2.04z" fill="#ffd9c9" stroke-width="none" opacity="1" transform="translate(0 2)" stroke="none"></path></g></g><g id="svga-group-hair-front" transform="matrix(1,0,0,1,0,0)"><path id="SvgjsPath9144" d="M160 89.7c-4.1-18.8-35.3-51.9-48.6-51.9-10.9 0-26.6 2.6-28.9 13.2-1.4-.3-3.6-.4-6.3 1.3-4.9 2.9-15.5 12.8-15.4 22.5.1 9.7 9.1 12.4 9.1 12.4-1.2-10.7-1.6-14.3 1.4-20.3s11.8-7.8 11.8-7.8c.3 1.1 8-9.7 18.2-10.5 10.5-.8 13.7 5.3 12.5 13s1.2 12.1 6.2 14.5c5 2.3 7.7-1.8 11.8 1.8 4.1 3.5 7.9 10.3 4.4 23.2-3.5 12.9-4.4 21.5 1.5 24.1s26.4-16.6 22.3-35.5z" fill="#452c22" stroke-width="none" opacity="1" stroke="none"></path><path id="SvgjsPath9145" d="M180.6 133.3c-3.8-2.6-6.1-2.9-3.5-13 .2-1 .4-1.8.5-2.7 1.5-1.8 2.7-3.7 2.6-5.8-.2-5.3-13.1-7.7-14.3-10.8-1.2-3.1-3.1-6.7 1.9-18.6s1.9-23.2-11.5-25.6-6.9-6.7-10.5-13.9c-3.6-7.2-15.8-16.5-27.2-13.9-11.5 2.6-10-6.7-23.9-4.8s-8.6 6.9-14.6 9.8-7.9 2.2-9.6 5.3c-1.7 3.1-1.7 5.5-.5 8.4 0 0-4.5-5-14.3-1.9S30.6 58.1 37.3 69.3s5.5 11.5-5.7 20.8-6 16.7 2.6 23.2 6.9 9.8-1.7 15.3-11.7 18.6 1 26.3 13.1 12.9 12 18.9c-1.2 6 2.4 16.5 23.4 16.5 0 0-9.3-3.6-5.7-11.7s7.4-10.5 0-19.6-10.8-16.2-6.5-23.2 13.6-7.6 6.2-16.5-8.6-12.7-.7-18.9c7.9-6.2 11.5-8.8 5.7-18.6C62.2 72 70.5 58.3 83 59.3c0 0 2.2-7.4 11.5-12.2s24.6-4.1 24.4 4.8c-.2 8.8-6 16.5-.7 24.4 5.3 7.9 13.1 2.2 22.5 1.9 9.3-.2 14.8 11 3.6 23.9s-11.7 18.2-8.4 23.7 11.7.5 14.8 5.3c3.1 4.8-11.9 6.9-12.9 13.1s.7 8.8 7.2 11c6.4 2.1 8.4 11 .5 13.9-7.7 2.8-6.9 13.7-1 18.8l.3.3s-1.8-4.1.3-7.3c2-3.2 12.7-1.7 22.2-1.4 9.5.3 7.8-5.8 4.3-17s4.6-12.7 7.2-15.6c2.4-3 5.6-11 1.8-13.6z" fill="#543c32" stroke-width="none" opacity="1" stroke="none"></path><path id="SvgjsPath9146" d="M73.9 53.6s-15.1-4.2-20.8 8.3 4.9 17 6.4 23.8C61 92.5 44.8 96.2 41 102.3c-3.8 6-2.3 12.8 9.4 19.3s-3 12.8-6 16.6 3 7.9 6.8 13.2c3.8 5.3 3 12.1 1.1 16.2s-1.9 7.2 1.5 9.8c0 0-3.4-2.6 1.5-10.9s-6.4-19.6-7.5-24.5c-1.1-4.9 9.8-10.9 11-14.7s-8.3-5.7-14.4-11.7c-6-6-3-12.8.8-14.7S63 93 64.1 89.6c1.1-3.4-9.8-12.1-9.8-18.5s.3-17.9 19.6-17.5zm3-3.1s1.9-7.5 9.4-11.7c7.6-4.2 29.8-6 37 0 7.2 6-3.4 19.6-.8 27.9s12.8 3.8 21.5 3c8.7-.8 17.4 3.8 15.5 14.7s-23 24.2-18.1 32.5c4.9 8.3 20.8-1.5 21.9 6.4 1.1 7.9-21.8 12.7-16.8 23.7s15.7 3.9 13.4 12.2-6 9.1-10.2 11.7c-4.1 2.6-3.8 5.7-3.8 5.7s.8-4.9 8.7-6.4 12.1-11.3 9.8-17.8-.5-11.1 3.6-19 8-15.5 3.5-17.7-16.9-.6-16.5-7.4c.4-6.8 7.9-21.5 8.3-29.1.4-7.6-.4-9.1-10.9-12.8-10.6-3.8-15.5-3-15.1-14 .4-11-7.9-17-14.3-18.9s-20.8-1.9-33.6 1.5c-12.9 3.5-12.5 15.5-12.5 15.5zm-7.7-.4s-10.4-.3-17 3.6-7.3 15.4.2 24.8-6.2 13-11 15.2-9.9 10.5-6.5 14.9c3.4 4.4 11.2 11.5 14.1 14.6 2.9 3.1-2.4 7.8-7.6 11.5s-6.7 7.8-3.9 11.2c2.8 3.4 11.5 7.6 12.6 12.6s-.3 8.6-.3 8.6 1-8.3-2.9-11c-3.9-2.8-15.6-4.5-16.5-13.6s11.4-11 13.4-15.1-2.3-10.4-4.7-12.2c-2.4-1.8-10.2-7.9-10.5-13.3-.3-5.3 4-10.5 9.7-13.1C44 86.2 48.2 85.7 49 82c.8-3.7-6.5-9.4-7.5-14.1-1-4.7-.8-11.5 6.3-15.4s12.7-3.7 21.4-2.4z" fill="#452c22" stroke-width="none" opacity="1" stroke="none"></path><path id="SvgjsPath9147" d="M81.6 54.5s3.5-11.1 12.7-15.2 23.1-3.8 27.6 1 .4 13-1.5 17.6-4.7 11.8-1.1 15.2c3.6 3.5 10.4 2.6 14.9.8s16.7-4.1 21.4 2-.9 16.6-6.2 22.5c-5.3 5.9-10.7 11.8-10.1 16.9.6 5.1 5.7 6.5 15.5 6.9 9.8.4 3.6 6.9-7.4 15.8s2 16 2 16-7.1-1.7-7.7-7.2 3-8.6 7.1-11.4 10.7-8.6 9.3-10.4c-1.4-1.8-14.8 2.3-18.7-.4s-4.5-5.9-2.1-12.8 11.9-13.9 14.2-18.4 6.3-12.8 2.7-16.4-16.7-1.1-24.4 1.2-13.1-2.7-13.1-6.6-.9-3.9 3.6-15.8-1.7-15.7-5.9-16.6-21.7-3.5-32.8 15.3zm-5 3.9s-11.3 2.1-13 9.3 2.7 15.5 4.5 19.6c1.8 4.1-6 8.9-10.5 13s-6.9 7.8-3.9 12.5 10.2 10.1 9.5 13c-.8 2.9-3.8 4.5-3.8 4.5s4.4-4.8.6-7.7c-3.8-2.9-13.9-6.6-13.3-13.9.6-7.2 7.1-8.6 11.9-12.1s8.1-3.6 8.1-8.3-6-9-8-15.8c-1.8-6.7.7-11.8 17.9-14.1zm55.6-22.7s5.6 1 8 8.8.2 10.7 3.4 14.1 14.2 3 18 6.3c3.7 3.2 5.3 12.9 1.7 23.6 0 0 5.6-8.8 4.6-16.8s-6.3-8.5-17.6-12.4-5.3-10.2-8.5-16.8-9.6-6.8-9.6-6.8zm41 82.2c-1.9-3.3-6.1-3.6-9.5-3.6-4.7 0-9.5.4-11.3-5.3-1.5-4.7 1.4-9.2 3.3-13.3 3.5-7.4 9.7-19.5.3-25-4-2.3-8.6-2.3-13-1.7-3.7.6-7.8 2.1-11.6 1.7-7.6-.7-6.7-7.9-4.9-13.1.1-.2-.2-.3-.3-.1-1.5 3.4-3.1 7.7-.8 11.2 2.3 3.4 6.9 3.1 10.4 2.6 7-.9 16.4-3.9 22 2.4 5.9 6.7-1.9 19.2-4.8 25.7-1.6 3.7-3 8-.9 11.8 2 3.8 6.3 4 10.1 4.2 5 .1 11.9 1.2 9.9 8.6-.9 3.3-3.1 6.4-5 9.1-3.3 4.9-6.8 9.9-6 16.1 0 .4.6.4.6 0 .2-8.4 5.7-13.6 9.7-20.3 1.8-3.1 3.9-7.5 1.8-11zm-45.7-83.4c-5.6-3.4-10.6-2.4-16.8-2.5-6.1 0-10-6.2-16.1-5-2 .4-3.6 1.4-5.1 2.8-1.2 1.1-1.8 2.8-2.9 4-1.8 1.7-3.9 2.2-6 3.2-3.2 1.5-6.3 3.9-5.2 7.8.1.3.6.2.5-.1-.4-2.4 1.7-5.2 3.7-6.4 1.2-.7 2.6-1 3.9-1.6 1.4-.6 2.7-1.2 3.8-2.2 1.6-1.4 2.4-3.4 4.2-4.7 3.8-2.8 7.4-1.6 11.2.6 3.1 1.8 5.4 2.8 9 2.7 5.7-.2 10.4-.2 15.7 2 .1 0 .3-.5.1-.6zM63.9 53.2c-7.4 1.3-15 5.7-16.2 13.8-.5 3.2.4 6.2 2.1 8.9 3 4.7 11.1 8.9 7.2 15.4-4.5 7.3-17.1 5.7-20 14.6-2.5 7.3 4.5 13.1 9.9 16.5.2.1.4-.2.2-.3-3.6-2.9-7.9-5.8-9.2-10.5-1.9-6.7 3.5-10.4 8.8-12.5 4.9-1.9 10.6-3.6 12.5-9.1 2-5.7-3.1-8.7-6.4-12.4-4.1-4.5-5.7-10.1-2.3-15.6 3-4.9 8.3-7 13.5-8.5.1-.1.1-.3-.1-.3zm-8-4.3c-6.3 2.2-12.8 5.6-15.1 12.3-1 3-1 6 .3 8.9 2.1 4.8 6.8 8.2 5.3 14.2 0 .2.2.2.3.1 2.1-5.3-1.8-8.9-4.2-13.3-5.8-10.6 5-18.3 13.5-21.8.3-.1.2-.5-.1-.4zM174 111.4c-1.3-2-3.3-3.3-5.4-4.4-3-1.5-6.8-3.1-6.7-7.2 0-.3-.4-.4-.5-.1-.4 2.4.8 4.3 2.6 5.8 1.5 1.1 3.2 1.7 4.8 2.6 1.8 1 3.1 2.3 4.6 3.6.4.4.8.1.6-.3zm-3.6 36.2c-2.9.6-4.5 2.9-5.1 5.7-1.3 6.1 2.9 12.1-2.6 17.3-5.3 5-20.8 1.5-20.5 12.1 0 .2.3.2.3 0 .5-10.5 16.6-5.6 22.1-12.2 1.7-2.1 2.5-4.6 2.5-7.2.1-4.9-3.2-12.4 3.5-14.8.4-.3.3-1-.2-.9zM62.8 161.9c-.9-3-2.6-5.7-4.6-8.2-3.6-4.4-10.4-9.6-6-16 .2-.2-.2-.6-.4-.3-6.3 7 3.1 13.9 6.8 19.2 1.8 2.6 3.7 6 3.5 9.2-.2 3.9-3.1 6.1-4.5 9.4-1.3 3.2-1.2 6.4.3 9.4.1.3.6.1.5-.2-1-3.6-1-6.7.9-10.1 1-1.8 2.5-3.4 3.3-5.3 1-2.3 1-4.6.2-7.1zM55 183.1c-4.9-4.2-6.2-9.2-5-15.5.6-3.3 1.7-6.6 1-9.9-.4-2.1-1.4-3.8-2.9-5.3-3.3-3.2-12-5.7-8.5-12.5.1-.2-.2-.4-.4-.2-1.7 2.6-1.3 5.2.6 7.6 3.7 4.7 10 5.3 10.2 12.6.1 5.1-2.5 10-1.4 15.2.8 3.6 2.8 6.5 5.9 8.5.4.2.7-.2.5-.5z" fill="#634e45" stroke-width="none" opacity="1" stroke="none"></path></g><g id="svga-group-glasses-single-move" transform="matrix(1,0,0,1,0,0)"><g id="svga-group-glasses-single" transform="matrix(1,0,0,1,0,0)"></g></g></g></g></g><rect id="svga-credit-rect" width="200" height="15" x="0" y="185" fill="#ecf0f1" opacity="0.5" style="display: none;"></rect><text id="svga-credit-text" font-family="Avenir Next, Roboto, Helvetica, Arial, sans-serif" font-size="10px" text-anchor="start" font-weight="400" size="10px" anchor="start" weight="400" fill="#333333" x="33.41014099121094" y="182.37941598892212" style="display: none;"><tspan id="SvgjsTspan4844" dy="13" x="33.41014099121094">Created on AvatarMaker.com</tspan></text></g></svg>